<mxfile host="Electron" agent="Mozilla/5.0 (Windows NT 10.0; Win64; x64) AppleWebKit/537.36 (KHTML, like Gecko) draw.io/24.2.5 Chrome/120.0.6099.109 Electron/28.1.0 Safari/537.36" modified="2025-09-12T10:48:00.710Z" version="24.2.5" etag="Lg2ckVdWTUbOgDqO21hK" type="device">
  <diagram name="Страница — 1" id="8ma9KyARYrbKn6qlZUvq">
    <mxGraphModel dx="1098" dy="828" grid="1" gridSize="10" guides="1" tooltips="1" connect="1" arrows="1" fold="1" page="1" pageScale="1" pageWidth="827" pageHeight="1169" math="0" shadow="0">
      <root>
        <mxCell id="0" />
        <mxCell id="1" parent="0" />
        <mxCell id="dcq4fBxbvVX3s8oVDsdl-10" value="" style="endArrow=none;html=1;rounded=0;exitX=1;exitY=0.75;exitDx=0;exitDy=0;entryX=0;entryY=1;entryDx=0;entryDy=0;" edge="1" parent="1" source="hVDHSrM-zefOUmls5H3F-15" target="dcq4fBxbvVX3s8oVDsdl-9">
          <mxGeometry width="50" height="50" relative="1" as="geometry">
            <mxPoint x="365" y="360" as="sourcePoint" />
            <mxPoint x="379" y="310" as="targetPoint" />
          </mxGeometry>
        </mxCell>
        <mxCell id="hVDHSrM-zefOUmls5H3F-1" value="В&lt;span style=&quot;background-color: transparent; color: light-dark(rgb(0, 0, 0), rgb(255, 255, 255));&quot;&gt;рач&lt;/span&gt;" style="rounded=0;whiteSpace=wrap;html=1;" parent="1" vertex="1">
          <mxGeometry x="170" y="120" width="90" height="40" as="geometry" />
        </mxCell>
        <mxCell id="hVDHSrM-zefOUmls5H3F-2" value="Пациент" style="rounded=0;whiteSpace=wrap;html=1;" parent="1" vertex="1">
          <mxGeometry x="369" y="260" width="90" height="40" as="geometry" />
        </mxCell>
        <mxCell id="hVDHSrM-zefOUmls5H3F-3" value="Участок" style="rounded=0;whiteSpace=wrap;html=1;" parent="1" vertex="1">
          <mxGeometry x="440" y="120" width="90" height="40" as="geometry" />
        </mxCell>
        <mxCell id="hVDHSrM-zefOUmls5H3F-9" value="Специальность" style="ellipse;whiteSpace=wrap;html=1;" parent="1" vertex="1">
          <mxGeometry x="110" y="40" width="100" height="70" as="geometry" />
        </mxCell>
        <mxCell id="hVDHSrM-zefOUmls5H3F-11" value="" style="endArrow=none;html=1;rounded=0;exitX=0.5;exitY=0;exitDx=0;exitDy=0;entryX=1;entryY=1;entryDx=0;entryDy=0;" parent="1" source="hVDHSrM-zefOUmls5H3F-1" target="hVDHSrM-zefOUmls5H3F-9" edge="1">
          <mxGeometry width="50" height="50" relative="1" as="geometry">
            <mxPoint x="320" y="280" as="sourcePoint" />
            <mxPoint x="370" y="230" as="targetPoint" />
          </mxGeometry>
        </mxCell>
        <mxCell id="hVDHSrM-zefOUmls5H3F-17" value="ФИО" style="ellipse;whiteSpace=wrap;html=1;" parent="1" vertex="1">
          <mxGeometry x="40" y="90" width="70" height="50" as="geometry" />
        </mxCell>
        <mxCell id="hVDHSrM-zefOUmls5H3F-18" value="" style="endArrow=none;html=1;rounded=0;exitX=0;exitY=0.25;exitDx=0;exitDy=0;entryX=1;entryY=1;entryDx=0;entryDy=0;" parent="1" source="hVDHSrM-zefOUmls5H3F-1" target="hVDHSrM-zefOUmls5H3F-17" edge="1">
          <mxGeometry width="50" height="50" relative="1" as="geometry">
            <mxPoint x="101" y="293" as="sourcePoint" />
            <mxPoint x="80" y="270" as="targetPoint" />
          </mxGeometry>
        </mxCell>
        <mxCell id="hVDHSrM-zefOUmls5H3F-19" value="Телефон" style="ellipse;whiteSpace=wrap;html=1;" parent="1" vertex="1">
          <mxGeometry x="50" y="150" width="70" height="50" as="geometry" />
        </mxCell>
        <mxCell id="hVDHSrM-zefOUmls5H3F-20" value="" style="endArrow=none;html=1;rounded=0;exitX=0;exitY=0.5;exitDx=0;exitDy=0;entryX=1;entryY=0.5;entryDx=0;entryDy=0;" parent="1" source="hVDHSrM-zefOUmls5H3F-1" target="hVDHSrM-zefOUmls5H3F-19" edge="1">
          <mxGeometry width="50" height="50" relative="1" as="geometry">
            <mxPoint x="171" y="313" as="sourcePoint" />
            <mxPoint x="150" y="290" as="targetPoint" />
          </mxGeometry>
        </mxCell>
        <mxCell id="hVDHSrM-zefOUmls5H3F-21" value="Номер кабинета" style="ellipse;whiteSpace=wrap;html=1;" parent="1" vertex="1">
          <mxGeometry x="230" y="45" width="80" height="60" as="geometry" />
        </mxCell>
        <mxCell id="hVDHSrM-zefOUmls5H3F-22" value="" style="endArrow=none;html=1;rounded=0;exitX=0.5;exitY=0;exitDx=0;exitDy=0;entryX=0.02;entryY=0.695;entryDx=0;entryDy=0;entryPerimeter=0;" parent="1" source="hVDHSrM-zefOUmls5H3F-1" target="hVDHSrM-zefOUmls5H3F-21" edge="1">
          <mxGeometry width="50" height="50" relative="1" as="geometry">
            <mxPoint x="381" y="113" as="sourcePoint" />
            <mxPoint x="360" y="90" as="targetPoint" />
          </mxGeometry>
        </mxCell>
        <mxCell id="hVDHSrM-zefOUmls5H3F-23" value="Номер" style="ellipse;whiteSpace=wrap;html=1;" parent="1" vertex="1">
          <mxGeometry x="440" y="20" width="80" height="60" as="geometry" />
        </mxCell>
        <mxCell id="hVDHSrM-zefOUmls5H3F-24" value="" style="endArrow=none;html=1;rounded=0;entryX=0.5;entryY=1;entryDx=0;entryDy=0;" parent="1" target="hVDHSrM-zefOUmls5H3F-23" edge="1">
          <mxGeometry width="50" height="50" relative="1" as="geometry">
            <mxPoint x="480" y="120" as="sourcePoint" />
            <mxPoint x="550" y="100" as="targetPoint" />
          </mxGeometry>
        </mxCell>
        <mxCell id="hVDHSrM-zefOUmls5H3F-25" value="Улицы" style="ellipse;whiteSpace=wrap;html=1;" parent="1" vertex="1">
          <mxGeometry x="530" y="45" width="80" height="60" as="geometry" />
        </mxCell>
        <mxCell id="hVDHSrM-zefOUmls5H3F-26" value="" style="endArrow=none;html=1;rounded=0;exitX=1;exitY=0;exitDx=0;exitDy=0;entryX=0;entryY=1;entryDx=0;entryDy=0;" parent="1" source="hVDHSrM-zefOUmls5H3F-3" target="hVDHSrM-zefOUmls5H3F-25" edge="1">
          <mxGeometry width="50" height="50" relative="1" as="geometry">
            <mxPoint x="591" y="253" as="sourcePoint" />
            <mxPoint x="570" y="230" as="targetPoint" />
          </mxGeometry>
        </mxCell>
        <mxCell id="hVDHSrM-zefOUmls5H3F-27" value="Дома" style="ellipse;whiteSpace=wrap;html=1;" parent="1" vertex="1">
          <mxGeometry x="560" y="120" width="60" height="50" as="geometry" />
        </mxCell>
        <mxCell id="hVDHSrM-zefOUmls5H3F-28" value="" style="endArrow=none;html=1;rounded=0;exitX=1;exitY=0.5;exitDx=0;exitDy=0;entryX=-0.007;entryY=0.392;entryDx=0;entryDy=0;entryPerimeter=0;" parent="1" source="hVDHSrM-zefOUmls5H3F-3" target="hVDHSrM-zefOUmls5H3F-27" edge="1">
          <mxGeometry width="50" height="50" relative="1" as="geometry">
            <mxPoint x="441" y="243" as="sourcePoint" />
            <mxPoint x="420" y="220" as="targetPoint" />
          </mxGeometry>
        </mxCell>
        <mxCell id="hVDHSrM-zefOUmls5H3F-31" style="edgeStyle=orthogonalEdgeStyle;rounded=0;orthogonalLoop=1;jettySize=auto;html=1;exitX=1;exitY=0.5;exitDx=0;exitDy=0;entryX=0;entryY=0.5;entryDx=0;entryDy=0;dashed=1;" parent="1" source="hVDHSrM-zefOUmls5H3F-29" target="hVDHSrM-zefOUmls5H3F-3" edge="1">
          <mxGeometry relative="1" as="geometry" />
        </mxCell>
        <mxCell id="hVDHSrM-zefOUmls5H3F-34" value="1" style="edgeLabel;html=1;align=center;verticalAlign=middle;resizable=0;points=[];" parent="hVDHSrM-zefOUmls5H3F-31" vertex="1" connectable="0">
          <mxGeometry x="-0.06" relative="1" as="geometry">
            <mxPoint as="offset" />
          </mxGeometry>
        </mxCell>
        <mxCell id="hVDHSrM-zefOUmls5H3F-32" style="edgeStyle=orthogonalEdgeStyle;rounded=0;orthogonalLoop=1;jettySize=auto;html=1;exitX=0;exitY=0.5;exitDx=0;exitDy=0;entryX=1;entryY=0.5;entryDx=0;entryDy=0;" parent="1" source="hVDHSrM-zefOUmls5H3F-29" target="hVDHSrM-zefOUmls5H3F-1" edge="1">
          <mxGeometry relative="1" as="geometry" />
        </mxCell>
        <mxCell id="hVDHSrM-zefOUmls5H3F-33" value="1" style="edgeLabel;html=1;align=center;verticalAlign=middle;resizable=0;points=[];" parent="hVDHSrM-zefOUmls5H3F-32" vertex="1" connectable="0">
          <mxGeometry x="0.184" relative="1" as="geometry">
            <mxPoint as="offset" />
          </mxGeometry>
        </mxCell>
        <mxCell id="hVDHSrM-zefOUmls5H3F-29" value="Закреплен" style="rhombus;whiteSpace=wrap;html=1;" parent="1" vertex="1">
          <mxGeometry x="310" y="105" width="90" height="70" as="geometry" />
        </mxCell>
        <mxCell id="hVDHSrM-zefOUmls5H3F-36" value="&lt;u&gt;ID&lt;/u&gt;" style="ellipse;whiteSpace=wrap;html=1;" parent="1" vertex="1">
          <mxGeometry x="110" y="190" width="50" height="40" as="geometry" />
        </mxCell>
        <mxCell id="hVDHSrM-zefOUmls5H3F-37" value="" style="endArrow=none;html=1;rounded=0;exitX=1;exitY=0;exitDx=0;exitDy=0;entryX=0.25;entryY=1;entryDx=0;entryDy=0;" parent="1" source="hVDHSrM-zefOUmls5H3F-36" target="hVDHSrM-zefOUmls5H3F-1" edge="1">
          <mxGeometry width="50" height="50" relative="1" as="geometry">
            <mxPoint x="291" y="223" as="sourcePoint" />
            <mxPoint x="270" y="200" as="targetPoint" />
          </mxGeometry>
        </mxCell>
        <mxCell id="hVDHSrM-zefOUmls5H3F-38" value="&lt;u&gt;ID&lt;/u&gt;" style="ellipse;whiteSpace=wrap;html=1;" parent="1" vertex="1">
          <mxGeometry x="530" y="175" width="50" height="40" as="geometry" />
        </mxCell>
        <mxCell id="hVDHSrM-zefOUmls5H3F-39" value="" style="endArrow=none;html=1;rounded=0;exitX=1;exitY=1;exitDx=0;exitDy=0;entryX=0;entryY=0;entryDx=0;entryDy=0;" parent="1" source="hVDHSrM-zefOUmls5H3F-3" target="hVDHSrM-zefOUmls5H3F-38" edge="1">
          <mxGeometry width="50" height="50" relative="1" as="geometry">
            <mxPoint x="440" y="266" as="sourcePoint" />
            <mxPoint x="480" y="230" as="targetPoint" />
          </mxGeometry>
        </mxCell>
        <mxCell id="hVDHSrM-zefOUmls5H3F-40" value="Дни недели" style="ellipse;whiteSpace=wrap;html=1;" parent="1" vertex="1">
          <mxGeometry x="40" y="260" width="80" height="60" as="geometry" />
        </mxCell>
        <mxCell id="hVDHSrM-zefOUmls5H3F-41" value="" style="endArrow=none;html=1;rounded=0;exitX=1;exitY=0.5;exitDx=0;exitDy=0;entryX=0;entryY=0;entryDx=0;entryDy=0;" parent="1" source="hVDHSrM-zefOUmls5H3F-40" target="hVDHSrM-zefOUmls5H3F-15" edge="1">
          <mxGeometry width="50" height="50" relative="1" as="geometry">
            <mxPoint x="210" y="356" as="sourcePoint" />
            <mxPoint x="250" y="320" as="targetPoint" />
          </mxGeometry>
        </mxCell>
        <mxCell id="hVDHSrM-zefOUmls5H3F-42" value="Начало приема" style="ellipse;whiteSpace=wrap;html=1;" parent="1" vertex="1">
          <mxGeometry x="20" y="330" width="90" height="50" as="geometry" />
        </mxCell>
        <mxCell id="hVDHSrM-zefOUmls5H3F-43" value="" style="endArrow=none;html=1;rounded=0;exitX=0;exitY=1;exitDx=0;exitDy=0;entryX=1;entryY=0;entryDx=0;entryDy=0;" parent="1" source="hVDHSrM-zefOUmls5H3F-15" target="hVDHSrM-zefOUmls5H3F-42" edge="1">
          <mxGeometry width="50" height="50" relative="1" as="geometry">
            <mxPoint x="220" y="456" as="sourcePoint" />
            <mxPoint x="260" y="420" as="targetPoint" />
          </mxGeometry>
        </mxCell>
        <mxCell id="hVDHSrM-zefOUmls5H3F-44" value="Время приема" style="ellipse;whiteSpace=wrap;html=1;" parent="1" vertex="1">
          <mxGeometry x="90" y="385" width="70" height="60" as="geometry" />
        </mxCell>
        <mxCell id="hVDHSrM-zefOUmls5H3F-45" value="" style="endArrow=none;html=1;rounded=0;exitX=0.5;exitY=0;exitDx=0;exitDy=0;entryX=0.5;entryY=1;entryDx=0;entryDy=0;" parent="1" source="dcq4fBxbvVX3s8oVDsdl-6" target="hVDHSrM-zefOUmls5H3F-15" edge="1">
          <mxGeometry width="50" height="50" relative="1" as="geometry">
            <mxPoint x="230" y="456" as="sourcePoint" />
            <mxPoint x="270" y="420" as="targetPoint" />
          </mxGeometry>
        </mxCell>
        <mxCell id="hVDHSrM-zefOUmls5H3F-47" style="edgeStyle=orthogonalEdgeStyle;rounded=0;orthogonalLoop=1;jettySize=auto;html=1;exitX=0.5;exitY=1;exitDx=0;exitDy=0;entryX=0.5;entryY=0;entryDx=0;entryDy=0;" parent="1" source="hVDHSrM-zefOUmls5H3F-46" target="hVDHSrM-zefOUmls5H3F-15" edge="1">
          <mxGeometry relative="1" as="geometry" />
        </mxCell>
        <mxCell id="hVDHSrM-zefOUmls5H3F-50" value="1" style="edgeLabel;html=1;align=center;verticalAlign=middle;resizable=0;points=[];" parent="hVDHSrM-zefOUmls5H3F-47" vertex="1" connectable="0">
          <mxGeometry x="-0.24" y="1" relative="1" as="geometry">
            <mxPoint as="offset" />
          </mxGeometry>
        </mxCell>
        <mxCell id="hVDHSrM-zefOUmls5H3F-48" style="edgeStyle=orthogonalEdgeStyle;rounded=0;orthogonalLoop=1;jettySize=auto;html=1;exitX=0.5;exitY=0;exitDx=0;exitDy=0;entryX=0.5;entryY=1;entryDx=0;entryDy=0;" parent="1" source="hVDHSrM-zefOUmls5H3F-46" target="hVDHSrM-zefOUmls5H3F-1" edge="1">
          <mxGeometry relative="1" as="geometry" />
        </mxCell>
        <mxCell id="hVDHSrM-zefOUmls5H3F-49" value="1" style="edgeLabel;html=1;align=center;verticalAlign=middle;resizable=0;points=[];" parent="hVDHSrM-zefOUmls5H3F-48" vertex="1" connectable="0">
          <mxGeometry x="-0.0933" y="-1" relative="1" as="geometry">
            <mxPoint as="offset" />
          </mxGeometry>
        </mxCell>
        <mxCell id="hVDHSrM-zefOUmls5H3F-46" value="Имеет" style="rhombus;whiteSpace=wrap;html=1;" parent="1" vertex="1">
          <mxGeometry x="170" y="190" width="90" height="60" as="geometry" />
        </mxCell>
        <mxCell id="hVDHSrM-zefOUmls5H3F-51" value="ФИО" style="ellipse;whiteSpace=wrap;html=1;" parent="1" vertex="1">
          <mxGeometry x="325" y="350" width="60" height="50" as="geometry" />
        </mxCell>
        <mxCell id="hVDHSrM-zefOUmls5H3F-52" value="" style="endArrow=none;html=1;rounded=0;exitX=0.5;exitY=0;exitDx=0;exitDy=0;entryX=0;entryY=1;entryDx=0;entryDy=0;" parent="1" source="hVDHSrM-zefOUmls5H3F-51" target="hVDHSrM-zefOUmls5H3F-2" edge="1">
          <mxGeometry width="50" height="50" relative="1" as="geometry">
            <mxPoint x="450" y="426" as="sourcePoint" />
            <mxPoint x="490" y="390" as="targetPoint" />
          </mxGeometry>
        </mxCell>
        <mxCell id="hVDHSrM-zefOUmls5H3F-53" value="&lt;u&gt;ID&lt;/u&gt;" style="ellipse;whiteSpace=wrap;html=1;" parent="1" vertex="1">
          <mxGeometry x="390" y="355" width="50" height="40" as="geometry" />
        </mxCell>
        <mxCell id="hVDHSrM-zefOUmls5H3F-54" value="" style="endArrow=none;html=1;rounded=0;exitX=0.5;exitY=0;exitDx=0;exitDy=0;entryX=0.5;entryY=1;entryDx=0;entryDy=0;" parent="1" source="hVDHSrM-zefOUmls5H3F-53" target="hVDHSrM-zefOUmls5H3F-2" edge="1">
          <mxGeometry width="50" height="50" relative="1" as="geometry">
            <mxPoint x="530" y="336" as="sourcePoint" />
            <mxPoint x="570" y="300" as="targetPoint" />
          </mxGeometry>
        </mxCell>
        <mxCell id="hVDHSrM-zefOUmls5H3F-64" style="edgeStyle=orthogonalEdgeStyle;rounded=0;orthogonalLoop=1;jettySize=auto;html=1;exitX=0;exitY=1;exitDx=0;exitDy=0;entryX=0.75;entryY=0;entryDx=0;entryDy=0;" parent="1" source="hVDHSrM-zefOUmls5H3F-55" target="hVDHSrM-zefOUmls5H3F-2" edge="1">
          <mxGeometry relative="1" as="geometry" />
        </mxCell>
        <mxCell id="hVDHSrM-zefOUmls5H3F-65" value="M" style="edgeLabel;html=1;align=center;verticalAlign=middle;resizable=0;points=[];" parent="hVDHSrM-zefOUmls5H3F-64" vertex="1" connectable="0">
          <mxGeometry x="-0.0453" relative="1" as="geometry">
            <mxPoint as="offset" />
          </mxGeometry>
        </mxCell>
        <mxCell id="hVDHSrM-zefOUmls5H3F-55" value="Закреплен" style="rhombus;whiteSpace=wrap;html=1;" parent="1" vertex="1">
          <mxGeometry x="414" y="185" width="90" height="50" as="geometry" />
        </mxCell>
        <mxCell id="hVDHSrM-zefOUmls5H3F-63" style="edgeStyle=orthogonalEdgeStyle;rounded=0;orthogonalLoop=1;jettySize=auto;html=1;exitX=1;exitY=0;exitDx=0;exitDy=0;entryX=0.449;entryY=0.97;entryDx=0;entryDy=0;entryPerimeter=0;" parent="1" source="hVDHSrM-zefOUmls5H3F-55" target="hVDHSrM-zefOUmls5H3F-3" edge="1">
          <mxGeometry relative="1" as="geometry" />
        </mxCell>
        <mxCell id="hVDHSrM-zefOUmls5H3F-66" value="1" style="edgeLabel;html=1;align=center;verticalAlign=middle;resizable=0;points=[];" parent="hVDHSrM-zefOUmls5H3F-63" vertex="1" connectable="0">
          <mxGeometry x="-0.0849" y="2" relative="1" as="geometry">
            <mxPoint as="offset" />
          </mxGeometry>
        </mxCell>
        <mxCell id="hVDHSrM-zefOUmls5H3F-68" style="edgeStyle=orthogonalEdgeStyle;rounded=0;orthogonalLoop=1;jettySize=auto;html=1;exitX=0;exitY=0;exitDx=0;exitDy=0;entryX=1;entryY=1;entryDx=0;entryDy=0;dashed=1;" parent="1" source="hVDHSrM-zefOUmls5H3F-67" target="hVDHSrM-zefOUmls5H3F-1" edge="1">
          <mxGeometry relative="1" as="geometry" />
        </mxCell>
        <mxCell id="hVDHSrM-zefOUmls5H3F-71" value="N" style="edgeLabel;html=1;align=center;verticalAlign=middle;resizable=0;points=[];" parent="hVDHSrM-zefOUmls5H3F-68" vertex="1" connectable="0">
          <mxGeometry x="-0.1434" y="2" relative="1" as="geometry">
            <mxPoint as="offset" />
          </mxGeometry>
        </mxCell>
        <mxCell id="hVDHSrM-zefOUmls5H3F-69" style="edgeStyle=orthogonalEdgeStyle;rounded=0;orthogonalLoop=1;jettySize=auto;html=1;exitX=1;exitY=1;exitDx=0;exitDy=0;entryX=0;entryY=0;entryDx=0;entryDy=0;dashed=1;" parent="1" source="hVDHSrM-zefOUmls5H3F-67" target="hVDHSrM-zefOUmls5H3F-2" edge="1">
          <mxGeometry relative="1" as="geometry" />
        </mxCell>
        <mxCell id="hVDHSrM-zefOUmls5H3F-70" value="M" style="edgeLabel;html=1;align=center;verticalAlign=middle;resizable=0;points=[];" parent="hVDHSrM-zefOUmls5H3F-69" vertex="1" connectable="0">
          <mxGeometry x="0.0269" y="4" relative="1" as="geometry">
            <mxPoint x="-1" y="-3" as="offset" />
          </mxGeometry>
        </mxCell>
        <mxCell id="hVDHSrM-zefOUmls5H3F-67" value="Посетил" style="rhombus;whiteSpace=wrap;html=1;" parent="1" vertex="1">
          <mxGeometry x="280" y="180" width="80" height="70" as="geometry" />
        </mxCell>
        <mxCell id="hVDHSrM-zefOUmls5H3F-73" style="edgeStyle=orthogonalEdgeStyle;rounded=0;orthogonalLoop=1;jettySize=auto;html=1;exitX=0;exitY=0.5;exitDx=0;exitDy=0;entryX=1;entryY=0.5;entryDx=0;entryDy=0;" parent="1" source="hVDHSrM-zefOUmls5H3F-72" target="hVDHSrM-zefOUmls5H3F-2" edge="1">
          <mxGeometry relative="1" as="geometry" />
        </mxCell>
        <mxCell id="hVDHSrM-zefOUmls5H3F-77" value="1" style="edgeLabel;html=1;align=center;verticalAlign=middle;resizable=0;points=[];" parent="hVDHSrM-zefOUmls5H3F-73" vertex="1" connectable="0">
          <mxGeometry x="-0.3036" y="1" relative="1" as="geometry">
            <mxPoint as="offset" />
          </mxGeometry>
        </mxCell>
        <mxCell id="hVDHSrM-zefOUmls5H3F-74" style="edgeStyle=orthogonalEdgeStyle;rounded=0;orthogonalLoop=1;jettySize=auto;html=1;exitX=1;exitY=0.5;exitDx=0;exitDy=0;entryX=0;entryY=0.5;entryDx=0;entryDy=0;dashed=1;" parent="1" source="hVDHSrM-zefOUmls5H3F-72" target="hVDHSrM-zefOUmls5H3F-8" edge="1">
          <mxGeometry relative="1" as="geometry" />
        </mxCell>
        <mxCell id="hVDHSrM-zefOUmls5H3F-78" value="M" style="edgeLabel;html=1;align=center;verticalAlign=middle;resizable=0;points=[];" parent="hVDHSrM-zefOUmls5H3F-74" vertex="1" connectable="0">
          <mxGeometry x="0.108" y="1" relative="1" as="geometry">
            <mxPoint as="offset" />
          </mxGeometry>
        </mxCell>
        <mxCell id="hVDHSrM-zefOUmls5H3F-72" value="Выдан" style="rhombus;whiteSpace=wrap;html=1;" parent="1" vertex="1">
          <mxGeometry x="537.5" y="240" width="80" height="80" as="geometry" />
        </mxCell>
        <mxCell id="hVDHSrM-zefOUmls5H3F-79" value="&lt;u&gt;ID&lt;/u&gt;" style="ellipse;whiteSpace=wrap;html=1;" parent="1" vertex="1">
          <mxGeometry x="680" y="180" width="50" height="40" as="geometry" />
        </mxCell>
        <mxCell id="hVDHSrM-zefOUmls5H3F-80" value="" style="endArrow=none;html=1;rounded=0;exitX=0.177;exitY=-0.029;exitDx=0;exitDy=0;entryX=0.5;entryY=1;entryDx=0;entryDy=0;exitPerimeter=0;" parent="1" source="hVDHSrM-zefOUmls5H3F-8" target="hVDHSrM-zefOUmls5H3F-79" edge="1">
          <mxGeometry width="50" height="50" relative="1" as="geometry">
            <mxPoint x="641" y="405" as="sourcePoint" />
            <mxPoint x="640" y="350" as="targetPoint" />
          </mxGeometry>
        </mxCell>
        <mxCell id="hVDHSrM-zefOUmls5H3F-81" value="Дата приема" style="ellipse;whiteSpace=wrap;html=1;" parent="1" vertex="1">
          <mxGeometry x="750" y="175" width="60" height="50" as="geometry" />
        </mxCell>
        <mxCell id="hVDHSrM-zefOUmls5H3F-82" value="Диагноз" style="ellipse;whiteSpace=wrap;html=1;" parent="1" vertex="1">
          <mxGeometry x="740" y="330" width="60" height="50" as="geometry" />
        </mxCell>
        <mxCell id="hVDHSrM-zefOUmls5H3F-83" value="" style="endArrow=none;html=1;rounded=0;exitX=0.75;exitY=1;exitDx=0;exitDy=0;entryX=0.392;entryY=-0.023;entryDx=0;entryDy=0;entryPerimeter=0;" parent="1" source="hVDHSrM-zefOUmls5H3F-8" target="hVDHSrM-zefOUmls5H3F-82" edge="1">
          <mxGeometry width="50" height="50" relative="1" as="geometry">
            <mxPoint x="752" y="449" as="sourcePoint" />
            <mxPoint x="750" y="410" as="targetPoint" />
          </mxGeometry>
        </mxCell>
        <mxCell id="hVDHSrM-zefOUmls5H3F-84" value="" style="endArrow=none;html=1;rounded=0;exitX=0.75;exitY=0;exitDx=0;exitDy=0;entryX=0.35;entryY=0.91;entryDx=0;entryDy=0;entryPerimeter=0;" parent="1" source="hVDHSrM-zefOUmls5H3F-8" target="hVDHSrM-zefOUmls5H3F-81" edge="1">
          <mxGeometry width="50" height="50" relative="1" as="geometry">
            <mxPoint x="702" y="469" as="sourcePoint" />
            <mxPoint x="700" y="430" as="targetPoint" />
          </mxGeometry>
        </mxCell>
        <mxCell id="hVDHSrM-zefOUmls5H3F-86" value="Свободные талоны" style="ellipse;whiteSpace=wrap;html=1;" parent="1" vertex="1">
          <mxGeometry x="200" y="385" width="90" height="70" as="geometry" />
        </mxCell>
        <mxCell id="hVDHSrM-zefOUmls5H3F-87" value="" style="endArrow=none;html=1;rounded=0;exitX=0.75;exitY=1;exitDx=0;exitDy=0;entryX=0.5;entryY=0;entryDx=0;entryDy=0;" parent="1" source="hVDHSrM-zefOUmls5H3F-15" target="hVDHSrM-zefOUmls5H3F-86" edge="1">
          <mxGeometry width="50" height="50" relative="1" as="geometry">
            <mxPoint x="260" y="615" as="sourcePoint" />
            <mxPoint x="350" y="560" as="targetPoint" />
          </mxGeometry>
        </mxCell>
        <mxCell id="dcq4fBxbvVX3s8oVDsdl-5" value="" style="rounded=0;whiteSpace=wrap;html=1;" vertex="1" parent="1">
          <mxGeometry x="680" y="250" width="120" height="60" as="geometry" />
        </mxCell>
        <mxCell id="hVDHSrM-zefOUmls5H3F-8" value="Статталон" style="rounded=0;whiteSpace=wrap;html=1;dashed=1;" parent="1" vertex="1">
          <mxGeometry x="692.5" y="260" width="95" height="40" as="geometry" />
        </mxCell>
        <mxCell id="dcq4fBxbvVX3s8oVDsdl-7" value="" style="endArrow=none;html=1;rounded=0;exitX=0.5;exitY=0;exitDx=0;exitDy=0;entryX=0.5;entryY=1;entryDx=0;entryDy=0;" edge="1" parent="1" source="hVDHSrM-zefOUmls5H3F-44" target="dcq4fBxbvVX3s8oVDsdl-6">
          <mxGeometry width="50" height="50" relative="1" as="geometry">
            <mxPoint x="125" y="385" as="sourcePoint" />
            <mxPoint x="215" y="330" as="targetPoint" />
          </mxGeometry>
        </mxCell>
        <mxCell id="dcq4fBxbvVX3s8oVDsdl-6" value="" style="rounded=0;whiteSpace=wrap;html=1;" vertex="1" parent="1">
          <mxGeometry x="155" y="280" width="120" height="60" as="geometry" />
        </mxCell>
        <mxCell id="hVDHSrM-zefOUmls5H3F-15" value="График приема" style="rounded=0;whiteSpace=wrap;html=1;dashed=1;" parent="1" vertex="1">
          <mxGeometry x="170" y="290" width="90" height="40" as="geometry" />
        </mxCell>
        <mxCell id="dcq4fBxbvVX3s8oVDsdl-9" value="&lt;u&gt;ID&lt;/u&gt;" style="ellipse;whiteSpace=wrap;html=1;" vertex="1" parent="1">
          <mxGeometry x="280" y="260" width="80" height="40" as="geometry" />
        </mxCell>
        <mxCell id="dcq4fBxbvVX3s8oVDsdl-13" style="edgeStyle=orthogonalEdgeStyle;rounded=0;orthogonalLoop=1;jettySize=auto;html=1;exitX=0;exitY=0.5;exitDx=0;exitDy=0;entryX=0.5;entryY=0;entryDx=0;entryDy=0;" edge="1" parent="1" source="dcq4fBxbvVX3s8oVDsdl-11" target="hVDHSrM-zefOUmls5H3F-1">
          <mxGeometry relative="1" as="geometry">
            <Array as="points">
              <mxPoint x="670" y="10" />
              <mxPoint x="215" y="10" />
            </Array>
          </mxGeometry>
        </mxCell>
        <mxCell id="dcq4fBxbvVX3s8oVDsdl-14" value="1" style="edgeLabel;html=1;align=center;verticalAlign=middle;resizable=0;points=[];" vertex="1" connectable="0" parent="dcq4fBxbvVX3s8oVDsdl-13">
          <mxGeometry x="-0.2" y="-2" relative="1" as="geometry">
            <mxPoint as="offset" />
          </mxGeometry>
        </mxCell>
        <mxCell id="dcq4fBxbvVX3s8oVDsdl-17" style="edgeStyle=orthogonalEdgeStyle;rounded=0;orthogonalLoop=1;jettySize=auto;html=1;exitX=0.5;exitY=1;exitDx=0;exitDy=0;dashed=1;" edge="1" parent="1" source="dcq4fBxbvVX3s8oVDsdl-11" target="dcq4fBxbvVX3s8oVDsdl-5">
          <mxGeometry relative="1" as="geometry" />
        </mxCell>
        <mxCell id="dcq4fBxbvVX3s8oVDsdl-18" value="M" style="edgeLabel;html=1;align=center;verticalAlign=middle;resizable=0;points=[];" vertex="1" connectable="0" parent="dcq4fBxbvVX3s8oVDsdl-17">
          <mxGeometry x="-0.2984" y="-1" relative="1" as="geometry">
            <mxPoint as="offset" />
          </mxGeometry>
        </mxCell>
        <mxCell id="dcq4fBxbvVX3s8oVDsdl-11" value="Выписывает" style="rhombus;whiteSpace=wrap;html=1;" vertex="1" parent="1">
          <mxGeometry x="670" width="98" height="80" as="geometry" />
        </mxCell>
      </root>
    </mxGraphModel>
  </diagram>
</mxfile>
